<?xml version="1.0" encoding="UTF-8"?>
<!DOCTYPE svg PUBLIC "-//W3C//DTD SVG 1.1//EN" "http://www.w3.org/Graphics/SVG/1.1/DTD/svg11.dtd">
<svg version="1.1" xmlns="http://www.w3.org/2000/svg" xmlns:xlink="http://www.w3.org/1999/xlink" x="0" y="0" width="642.235" height="409.148" viewBox="0, 0, 642.235, 409.148">
  <style>
    #SG, #arah, #ebauer {
      fill:none;
      stroke-linecap:round;
      stroke-linejoin:round;
      stroke-width:12;
      stroke:#55006B;
    }
    #Layer_1,
    #SG {
      pointer-events:all;
    }
    #Layer_2 {
    visibility: hidden;
    }
    #Layer_1:hover #Layer_2,
    #SG:hover #Layer_2 {
    visibility: visible;
    }
  </style>
  <g id="Layer_1">
    <g id="SG">
      <g id="big_S">
        <path d="M210.781,46.835 C210.781,-7.665 103.604,-11.41 109.781,63.335 C113.115,103.669 143.781,105.002 151.115,133.669" />
        <path d="M159.642,177.369 C173.169,261.432 119.059,268.196 78.781,259.835" />
        <path d="M38.862,247.905 C11.807,243.073 -1.721,209.255 11.807,177.369" />
      </g>
      <path d="M218.582,216.985 C225.921,200.503 226.346,188.181 224.646,180.107 C212.749,165.235 200.806,151.974 161.759,153.338 C54.174,157.094 -6.119,396.668 136.452,403.469 C246.317,408.71 236.119,296.958 236.119,296.958 C236.119,296.958 176.068,298.149 176.068,298.149" id="big_G"/>
    </g>
    <g id="arah">
      <path d="M252.367,98.137 C254.555,89.617 260.382,80.101 245.603,77.846 C223.212,74.431 197.822,133.594 209.781,133.669 C234.51,133.824 243.743,101.522 243.671,96.205 C243.592,90.38 247.63,124.604 252.368,125.819 C279.275,132.718 286.626,98.363 286.262,96.663 C285.897,94.962 297.195,127.033 297.195,127.033 L282.617,87.309 L285.897,96.055 C285.897,96.055 307.643,78.076 327.323,82.328" id="ar"/>
      <path d="M362.081,96.534 C364.827,101.277 368.571,79.811 351.848,78.812 C340.635,78.143 299.431,128.484 337.62,128.733 C357.947,128.866 365.576,90.793 369.57,91.293 C373.563,91.792 351.848,125.239 398.274,113.258" id="a"/>
      <path d="M406.5,23.929 C406.5,23.929 405.751,99.06 405.502,128.015 C400.26,92.071 456.92,81.338 436.952,142.492" />
    </g>
    <g id="ebauer">
      <path d="M307.255,373.82 C282.61,384.442 254.991,388.267 253.291,358.948 C252.406,343.676 271.771,326.149 280.91,323.255 C311.929,324.955 297.482,369.995 254.991,359.373" fill-opacity="0" stroke="#55006B" stroke-width="12" stroke-linecap="round" stroke-linejoin="round"/>
      <path d="M312.03,239.921 C312.03,239.921 316.775,307.057 320.175,355.922 C364.366,272.639 408.557,408.648 319.323,375.658" fill-opacity="0" stroke="#55006B" stroke-width="12" stroke-linecap="round" stroke-linejoin="round"/>
      <path d="M399.208,358.704 C430.227,361.922 429.377,331.753 408.981,329.204 C399.348,328 380.512,346.313 380.512,361.497 C380.512,407.388 431.95,362.921 427.253,334.484 C419.604,387.417 455.722,389.541 461.671,340.677 C453.597,404.838 487.59,367.021 488.865,333.453 C481.642,392.091 518.609,381.468 524.558,367.446" fill-opacity="0" stroke="#55006B" stroke-width="12" stroke-linecap="round" stroke-linejoin="round"/>
      <path d="M528.906,351.724 C567.573,367.446 569.273,324.955 555.25,324.955 C541.228,324.955 518.627,346.046 527.206,365.746 C538.679,392.091 567.998,391.666 587.969,346.625 C589.071,344.138 586.269,329.147 586.269,329.147 L598.727,381.056 C598.727,381.056 567.474,329.147 636.735,323.255" fill-opacity="0" stroke="#55006B" stroke-width="12" stroke-linecap="round" stroke-linejoin="round" id="er"/>
    </g>
  </g>
  <g id="Layer_2">
    <g id="panda-head">
      <g id="Left_ear">
        <path d="M395.733,251.5 C395.733,251.5 374.233,203.5 382.233,196 C390.233,188.5 441.233,226 441.233,226 L395.733,251.5 z" fill="#FFF1E7"/>
        <path d="M399.888,251.5 C399.888,251.5 380.352,209.448 387.621,202.877 C394.89,196.306 441.233,229.16 441.233,229.16 L399.888,251.5 z" fill="#292929"/>
      </g>
      <g id="Left_ear">
        <path d="M529.949,251.5 C529.949,251.5 551.449,203.5 543.449,196 C535.449,188.5 484.449,226 484.449,226 L529.949,251.5 z" fill="#FFF1E7"/>
        <path d="M525.794,251.5 C525.794,251.5 545.33,209.448 538.061,202.877 C530.791,196.306 484.449,229.16 484.449,229.16 L525.794,251.5 z" fill="#292929"/>
      </g>
      <path d="M462.5,328 C420.25,328 386,304.271 386,275 C386,245.729 420.25,222 462.5,222 C504.75,222 539,245.729 539,275 C539,304.271 504.75,328 462.5,328 z" fill="#FF7617"/>
      <g id="Above_eyes_dots">
        <path d="M442.75,271.699 C438.539,271.699 435.125,268.453 435.125,264.449 C435.125,260.445 438.539,257.199 442.75,257.199 C446.961,257.199 450.375,260.445 450.375,264.449 C450.375,268.453 446.961,271.699 442.75,271.699 z" fill="#FFF1E7"/>
        <path d="M482.25,271.949 C478.039,271.949 474.625,268.703 474.625,264.699 C474.625,260.695 478.039,257.449 482.25,257.449 C486.461,257.449 489.875,260.695 489.875,264.699 C489.875,268.703 486.461,271.949 482.25,271.949 z" fill="#FFF1E7"/>
      </g>
      <path d="M448.116,284.199 C445.212,284.199 442.858,281.96 442.858,279.199 C442.858,276.438 445.212,274.199 448.116,274.199 C451.021,274.199 453.375,276.438 453.375,279.199 C453.375,281.96 451.021,284.199 448.116,284.199 z" fill="#000000"/>
      <path d="M476.366,284.199 C473.462,284.199 471.108,281.96 471.108,279.199 C471.108,276.438 473.462,274.199 476.366,274.199 C479.271,274.199 481.625,276.438 481.625,279.199 C481.625,281.96 479.271,284.199 476.366,284.199 z" fill="#000000"/>
      <path d="M463.75,328 C442.211,328 424.75,319.65 424.75,309.349 C424.75,299.049 442.211,290.699 463.75,290.699 C485.289,290.699 502.75,299.049 502.75,309.349 C502.75,319.65 485.289,328 463.75,328 z" fill="#FFF1E7"/>
      <path d="M462.5,303.449 C458.289,303.449 454.875,300.203 454.875,296.199 C454.875,292.195 458.289,288.949 462.5,288.949 C466.711,288.949 470.125,292.195 470.125,296.199 C470.125,300.203 466.711,303.449 462.5,303.449 z" fill="#000000"/>
      <path d="M462.75,301.75 C462.75,319.5 442.858,315.5 442.858,308" fill-opacity="0" stroke="#000000" stroke-width="3" stroke-linecap="round"/>
      <path d="M462.858,301.75 C462.858,319.5 482.75,315.5 482.75,308" fill-opacity="0" stroke="#000000" stroke-width="3" stroke-linecap="round"/>
    </g>
  </g>
</svg>
