<?xml version="1.0" encoding="UTF-8"?>
<!DOCTYPE svg PUBLIC "-//W3C//DTD SVG 1.1//EN" "http://www.w3.org/Graphics/SVG/1.1/DTD/svg11.dtd">
<svg version="1.1" xmlns="http://www.w3.org/2000/svg" xmlns:xlink="http://www.w3.org/1999/xlink" x="0" y="0" width="390.282" height="615.816" viewBox="0, 0, 390.282, 615.816">
  <g id="Layer_1" transform="translate(-117, -105.288)">
    <g id="Red_panda">
      <path d="M354,534 C397.165,584.782 425,594 441,633 C457,672 450,686 445,703 C440,720 480,728.925 494,705 C508,681.075 508,667 506,640 C504,613 494,601 478,578 C462,555 456,556 429,537 C402,518 383,506 362,501 C341,496 337,514 354,534 z" fill="#FF7617"/>
      <path d="M445,703 C438.031,721.989 484.632,730.967 494.335,705 C480.857,698.022 449.425,701.689 445,703 z" fill="#FFF1E7"/>
      <path d="M434.781,540.984 C434.781,540.984 395.877,576.472 394.922,576.062 C393.967,575.653 384.392,566.273 380.781,562.719 C385.767,558.117 417.016,528.732 417.516,529 C418.015,529.268 434.781,540.984 434.781,540.984 z" fill="#FFF1E7"/>
      <path d="M465.448,562.318 C464.224,564.04 422.215,601.856 421.26,601.447 C420.305,601.038 411.366,591.418 407.436,587.623 C412.315,579.626 448.094,549.7 448.594,549.969 C450.675,549.851 462.055,558.755 465.448,562.318 z" fill="#FFF1E7"/>
      <path d="M499.38,611.522 C497.527,612.799 442.508,635.638 441.713,634.949 C440.917,634.26 435.87,622.92 433.378,618.055 C441.182,611.878 488.396,593.201 488.792,593.614 C490.595,594.853 497.335,607.046 499.38,611.522 z" fill="#FFF1E7"/>
      <path d="M506,673.625 C503.958,674.184 451.419,676.671 450.938,675.75 C450.898,673.177 450.097,663.25 448.906,657.188 C457.76,654.082 506.564,652.445 506.781,652.969 C507.974,654.753 506.758,669.186 506,673.625 z" fill="#FFF1E7"/>
      <g id="Left_ear">
        <path d="M134.677,200.571 C134.677,200.571 122.88,162.301 121.566,154.711 C119.375,142.047 122.498,109.798 126.413,107.261 C130.821,104.405 165.785,115.275 172.684,118.837 C179.583,122.399 211.354,146.759 211.354,146.759 L178.193,181.043 z" fill-opacity="0" stroke="#000000" stroke-width="1" stroke-linecap="round" stroke-linejoin="bevel"/>
        <path d="M145.865,202.21 C145.865,202.21 135.856,169.74 134.741,163.301 C132.882,152.556 135.532,125.195 138.854,123.043 C142.593,120.62 172.258,129.842 178.111,132.864 C183.965,135.886 210.92,156.554 210.92,156.554 L182.786,185.642 z" fill="#000000"/>
      </g>
      <g id="Body">
        <path d="M346.425,525.077 L317.425,524.925 C310.798,524.891 305.397,530.235 305.363,536.862 L304.673,668.861 C304.639,675.488 309.983,680.889 316.61,680.923 L345.61,681.075 C352.237,681.109 357.638,675.765 357.673,669.138 L358.362,537.139 C358.397,530.512 353.052,525.111 346.425,525.077 z" fill="#525252"/>
        <path d="M222.425,525.077 L193.425,524.925 C186.798,524.891 181.397,530.235 181.363,536.862 L180.673,668.861 C180.639,675.488 185.983,680.889 192.61,680.923 L221.61,681.075 C228.237,681.109 233.638,675.765 233.673,669.138 L234.362,537.139 C234.397,530.512 229.052,525.111 222.425,525.077 z" fill="#525252"/>
        <path d="M271,581 C204.726,581 151,512.947 151,429 C151,345.053 204.726,277 271,277 C337.274,277 391,345.053 391,429 C391,512.947 337.274,581 271,581 z" fill="#8A8A8A"/>
        <path d="M367.234,338.903 C381.35,364.838 382.226,371.623 383.539,377.532 L328.181,500.084 C325.513,506.15 318.432,508.904 312.365,506.236 L285.82,494.559 C279.754,491.89 276.999,484.809 279.668,478.743 C336.703,352.691 364.066,333.082 367.234,338.903 z" fill="#525252"/>
        <path d="M174.125,339.438 C160.009,365.372 159.337,372.248 158.024,378.157 L213.382,500.709 C216.05,506.775 223.131,509.529 229.198,506.861 L255.743,495.184 C261.809,492.515 264.564,485.434 261.895,479.368 C204.86,353.316 177.293,333.617 174.125,339.438 z" fill="#525252"/>
      </g>
      <g id="Right_ear">
        <path d="M402.586,200.571 C402.586,200.571 414.383,162.301 415.696,154.711 C417.888,142.047 414.765,109.798 410.849,107.261 C406.442,104.405 371.477,115.275 364.578,118.837 C357.68,122.399 325.909,146.759 325.909,146.759 L359.069,181.043 z" fill-opacity="0" stroke="#000000" stroke-width="1" stroke-linecap="round" stroke-linejoin="bevel"/>
        <path d="M390.398,202.21 C390.398,202.21 400.407,169.74 401.521,163.301 C403.38,152.556 400.731,125.195 397.409,123.043 C393.669,120.62 364.004,129.842 358.151,132.864 C352.298,135.886 325.342,156.554 325.342,156.554 L353.477,185.642 z" fill="#000000"/>
      </g>
      <g id="Face">
        <path d="M269.5,346 C185.277,346 117,299.661 117,242.5 C117,185.339 185.277,139 269.5,139 C353.723,139 422,185.339 422,242.5 C422,299.661 353.723,346 269.5,346 z" fill="#FF7617"/>
        <path d="M222.587,266.333 C216.143,266.333 210.92,261.11 210.92,254.667 C210.92,248.223 216.143,243 222.587,243 C229.03,243 234.253,248.223 234.253,254.667 C234.253,261.11 229.03,266.333 222.587,266.333 z" fill="#341E00"/>
        <path d="M316.253,266.333 C322.697,266.333 327.92,261.11 327.92,254.667 C327.92,248.223 322.697,243 316.253,243 C309.81,243 304.587,248.223 304.587,254.667 C304.587,261.11 309.81,266.333 316.253,266.333 z" fill="#341E00"/>
        <path d="M222.667,238.333 C216.223,238.333 211,233.11 211,226.667 C211,220.223 216.223,215 222.667,215 C229.11,215 234.333,220.223 234.333,226.667 C234.333,233.11 229.11,238.333 222.667,238.333 z" fill="#FFF1E7"/>
        <path d="M316.333,238.333 C322.777,238.333 328,233.11 328,226.667 C328,220.223 322.777,215 316.333,215 C309.89,215 304.667,220.223 304.667,226.667 C304.667,233.11 309.89,238.333 316.333,238.333 z" fill="#FFF1E7"/>
        <path d="M270.167,346 C250.376,346 234.333,329.957 234.333,310.167 C234.333,290.376 250.376,274.333 270.167,274.333 C289.957,274.333 306,290.376 306,310.167 C306,329.957 289.957,346 270.167,346 z" fill="#FFF1E7"/>
        <path d="M270.167,290.667 C265.656,290.667 262,287.01 262,282.5 C262,277.99 265.656,274.333 270.167,274.333 C274.677,274.333 278.333,277.99 278.333,282.5 C278.333,287.01 274.677,290.667 270.167,290.667 z" fill="#180E00"/>
        <path d="M164,313 C151.482,313 141.333,298.524 141.333,280.667 C141.333,262.809 151.482,248.333 164,248.333 C176.518,248.333 186.667,262.809 186.667,280.667 C186.667,298.524 176.518,313 164,313 z" fill="#FFF1E7"/>
        <path d="M375,313 C362.482,313 352.333,298.524 352.333,280.667 C352.333,262.809 362.482,248.333 375,248.333 C387.518,248.333 397.667,262.809 397.667,280.667 C397.667,298.524 387.518,313 375,313 z" fill="#FFF1E7"/>
        <path d="M234.333,266.333 C228.699,276.653 223.199,277.82 222.532,282.82 C221.865,287.82 226.718,290.667 234.333,290.667 C239.468,290.667 242.643,284.937 242,281.667 C240.445,273.763 235.51,273.523 234.333,266.333 z" fill="#00B3D2"/>
      </g>
    </g>
  </g>
</svg>
